<?xml version="1.0" encoding="utf-8"?>
<!-- Generator: Adobe Illustrator 17.0.2, SVG Export Plug-In . SVG Version: 6.00 Build 0)  -->
<!DOCTYPE svg PUBLIC "-//W3C//DTD SVG 1.1//EN" "http://www.w3.org/Graphics/SVG/1.1/DTD/svg11.dtd">
<svg version="1.1" id="Layer_1" xmlns="http://www.w3.org/2000/svg" xmlns:xlink="http://www.w3.org/1999/xlink" x="0px" y="0px"
	 width="135px" height="66.13px" viewBox="0 0 135 66.13" enable-background="new 0 0 135 66.13" xml:space="preserve">
<path fill="#FFFFFF" d="M80.282,10.826c-0.494,0.083-2.021-0.027-2.892-0.049c-0.204-0.006-0.175-0.008-0.354,0
	c-1.005,0.038-2.74,0.156-3.205-0.013c-0.145-0.053-0.153-0.161,0-0.198l0.303-0.119c0.635-0.149,1.984-0.667,2.575-0.763
	c0.172-0.027,0.475-0.091,0.704-0.07c0.991,0.096,2.588,0.78,2.867,0.952C80.403,10.641,80.378,10.808,80.282,10.826 M79.308,12.076
	c0,0.381-0.916,0.022-2.168,0.053c-1.257,0.029-2.296,0.172-2.264,0.006c0.057-0.299-0.054-0.537-0.153-0.777v-0.07
	c-0.078-0.192,1.363,0.202,2.368,0.147c1.269-0.073,2.407-0.294,2.407-0.081C79.497,11.563,79.308,11.765,79.308,12.076
	 M76.898,8.168l0.005-0.038c0-0.129,0.291-0.397,0.368-0.142C77.339,8.221,77.506,9.3,77.452,9.3c-0.126,0-0.693,0.172-0.693-0.043
	C76.759,9.043,76.898,8.259,76.898,8.168 M52.873,0v28.846h1.739c0.094-1.335,0.839-7.865,0.792-10.162
	c-0.057-2.828-0.24-5.418-0.091-5.746c0.323-0.699,3.872-0.269,3.872-0.269s-1.336,4.264-0.71,6.807
	c0.121,0.484,0.199,0.895,0.285,1.242c0.443-2.364,0.892-4.202,0.573-7.365c-0.352-3.5-0.763-5.844-0.37-5.939
	c0.529-0.133,1.007-0.321,1.007-0.321s0.406-2.053,0.745-1.421c0.35,0.656,0.592,1.314,0.592,1.314s0.659-0.123,1.137-0.03
	c0.511,0.098-0.868,4.933-0.545,8.793c0.065,0.796,0.196,1.872,0.339,2.513c0.099-0.372,0.263-0.69,0.325-1.033
	c0.57-3.108-0.14-6.367,0.384-6.321c0.718,0.062,0.712,0.511,2.322,0.693c1.819,0.206,2.058-0.142,1.953,0.227
	c-0.123,0.437-0.882,2.008-0.349,4.734c0.075,0.373,0.237,0.629,0.319,0.98c0.299-1.207,0.573-2.427,0.685-3.227
	c0.29-2.114-0.774-4.864-0.459-4.848c0.194,0.008,0.645-0.057,0.645-0.057s-0.111-0.543,0-0.542c0.198,0,0.75-0.054,0.75-0.054
	S68.973,8.005,69.062,8c0.127-0.005,1.21-0.061,1.371-0.054c0.131,0.006,0.166,0.706,0.166,0.706s0.675,0.003,0.788-0.002
	c0.14-0.005,0.124,0.597,0.124,0.597s0.508-0.078,0.831-0.053c0.409,0.032-0.712,0.963-0.592,5.733
	c0.059,2.155,0.237,3.459,0.599,4.485c0.221-0.691,0.369-1.557,0.455-2.494c0.062-0.718-0.505-2.142,0.006-2.005
	c0.846,0.224,2.05,1.05,3.494,1.365c-0.188-0.763-0.462-2.746-0.643-3.31c-0.197-0.608,0.843-0.226,1.367-0.226
	c0.529,0,1.706-0.339,1.376,0.205c-0.441,0.734-0.823,2.701-1.034,3.434c0.248-0.024,0.5-0.084,1.08-0.129
	c0.925-0.072-0.065,1.499-0.268,3.904c-0.11,1.341,1.634,7.087,1.674,8.69h1.86V0H52.873z"/>
<path fill="#FFFFFF" d="M72.721,23.146l0.045-0.122c0,0-0.064-0.013-0.315-0.011c-1.328,0.011-5.531,0.219-5.498,1.704
	c0.027,1.08,1.685,3.188,4.124,4.128h0.338c-0.718-0.999-1.738-2.746-1.688-3.388C69.844,23.77,72.721,23.146,72.721,23.146"/>
<path fill="#FFFFFF" d="M65.17,28.368c0.076-0.049,0.147-0.129,0.188-0.188c0.385-0.5-0.796-1.461-1.949-2.305
	c-0.793-0.576-1.058-1.425-0.577-2.251c0.36-0.623,1.586-1.561,3.439-1.496c1.851,0.065,2.501,0.669,2.501,0.669
	s-0.932-0.067-1.836,0.142c-0.894,0.206-2.137,0.761-1.798,1.993c0.408,1.481,3.201,2.369,2.833,3.412
	c-0.183,0.341-0.452,0.503-0.452,0.503h-2.438h-1.298C63.781,28.846,64.456,28.727,65.17,28.368"/>
<g>
	<g>
		<path fill="#FFFFFF" d="M43.506,53.922v2.114c-1.032-0.864-2.102-1.297-3.206-1.297c-1.218,0-2.244,0.437-3.077,1.312
			c-0.839,0.87-1.258,1.934-1.258,3.191c0,1.242,0.419,2.292,1.258,3.147c0.839,0.854,1.865,1.281,3.085,1.281
			c0.628,0,1.163-0.102,1.602-0.307c0.247-0.103,0.5-0.241,0.765-0.415c0.263-0.173,0.542-0.384,0.831-0.628v2.158
			c-1.023,0.581-2.098,0.87-3.222,0.87c-1.693,0-3.138-0.591-4.335-1.772c-1.191-1.191-1.787-2.628-1.787-4.311
			c0-1.508,0.498-2.853,1.496-4.036c1.228-1.448,2.817-2.169,4.764-2.169C41.485,53.062,42.515,53.347,43.506,53.922"/>
		<path fill="#FFFFFF" d="M46.581,59.178c0,1.308,0.438,2.386,1.32,3.228c0.873,0.843,1.884,1.265,3.029,1.265
			c1.242,0,2.29-0.43,3.146-1.289c0.855-0.866,1.282-1.926,1.282-3.173c0-1.261-0.424-2.321-1.268-3.173
			c-0.838-0.858-1.875-1.287-3.114-1.287c-1.234,0-2.273,0.429-3.122,1.287C47.005,56.884,46.581,57.93,46.581,59.178
			 M44.778,59.158c0-1.668,0.61-3.1,1.833-4.296c1.218-1.198,2.681-1.797,4.388-1.797c1.688,0,3.136,0.605,4.343,1.814
			c1.212,1.203,1.816,2.657,1.816,4.346c0,1.706-0.607,3.149-1.822,4.337c-1.223,1.191-2.698,1.786-4.429,1.786
			c-1.529,0-2.902-0.528-4.119-1.587C45.447,62.591,44.778,61.057,44.778,59.158"/>
		<polygon fill="#FFFFFF" points="60.57,53.292 60.57,63.455 64.052,63.455 64.052,65.136 58.782,65.136 58.782,53.292 		"/>
		<polygon fill="#FFFFFF" points="67.535,53.292 67.535,63.455 71.018,63.455 71.018,65.136 65.748,65.136 65.748,53.292 		"/>
		<polygon fill="#FFFFFF" points="79.252,54.97 74.503,54.97 74.503,57.817 79.113,57.817 79.113,59.498 74.503,59.498 
			74.503,63.455 79.252,63.455 79.252,65.136 72.715,65.136 72.715,53.29 79.252,53.29 		"/>
		<path fill="#FFFFFF" d="M87.378,58.969h4.894v0.388c0,0.893-0.103,1.681-0.315,2.366c-0.204,0.632-0.548,1.226-1.035,1.779
			c-1.099,1.237-2.499,1.856-4.197,1.856c-1.656,0-3.076-0.599-4.257-1.794c-1.182-1.202-1.771-2.645-1.771-4.329
			c0-1.719,0.6-3.177,1.801-4.372c1.202-1.201,2.665-1.803,4.388-1.803c0.927,0,1.79,0.188,2.595,0.567
			c0.768,0.373,1.521,0.988,2.263,1.835l-1.274,1.219c-0.972-1.293-2.155-1.942-3.552-1.942c-1.253,0-2.305,0.432-3.154,1.297
			c-0.849,0.85-1.274,1.914-1.274,3.191c0,1.32,0.473,2.407,1.419,3.262c0.886,0.793,1.844,1.19,2.878,1.19
			c0.881,0,1.671-0.297,2.37-0.888c0.701-0.597,1.094-1.312,1.175-2.142h-2.954V58.969z"/>
		<polygon fill="#FFFFFF" points="100.429,54.97 95.681,54.97 95.681,57.817 100.29,57.817 100.29,59.498 95.681,59.498 
			95.681,63.455 100.429,63.455 100.429,65.136 93.892,65.136 93.892,53.29 100.429,53.29 		"/>
	</g>
	<g>
		<path fill="#FFFFFF" d="M8.299,39.328l-1.451,0.859c-0.272-0.47-0.529-0.776-0.776-0.921c-0.255-0.163-0.585-0.244-0.988-0.244
			c-0.498,0-0.909,0.14-1.238,0.422c-0.328,0.277-0.491,0.624-0.491,1.043c0,0.58,0.43,1.045,1.289,1.399l1.182,0.483
			c0.962,0.389,1.664,0.862,2.11,1.422c0.444,0.562,0.667,1.247,0.667,2.061c0,1.093-0.363,1.991-1.091,2.704
			c-0.729,0.717-1.637,1.075-2.724,1.075c-1.027,0-1.876-0.307-2.545-0.918c-0.661-0.609-1.072-1.468-1.236-2.571l1.811-0.401
			c0.081,0.696,0.226,1.179,0.43,1.443c0.368,0.513,0.905,0.768,1.61,0.768c0.557,0,1.021-0.189,1.389-0.559
			c0.369-0.373,0.553-0.848,0.553-1.421c0-0.229-0.032-0.439-0.096-0.632c-0.064-0.19-0.164-0.367-0.299-0.528
			c-0.135-0.16-0.311-0.312-0.526-0.452c-0.213-0.142-0.47-0.276-0.768-0.402L3.97,43.483c-1.621-0.683-2.432-1.687-2.432-3.007
			c0-0.887,0.341-1.629,1.021-2.23c0.678-0.602,1.527-0.904,2.54-0.904C6.464,37.342,7.53,38.005,8.299,39.328"/>
		<polygon fill="#FFFFFF" points="16.872,39.252 12.125,39.252 12.125,42.099 16.735,42.099 16.735,43.779 12.125,43.779 
			12.125,47.737 16.872,47.737 16.872,49.419 10.338,49.419 10.338,37.572 16.872,37.572 		"/>
		<path fill="#FFFFFF" d="M25.451,44.861l-1.757-4.028l-1.841,4.028H25.451z M26.18,46.539h-5.07l-1.32,2.88h-1.926l5.86-12.59
			l5.654,12.59h-1.956L26.18,46.539z"/>
		<polygon fill="#FFFFFF" points="32.997,39.252 32.997,49.419 31.21,49.419 31.21,39.252 28.487,39.252 28.487,37.572 
			35.713,37.572 35.713,39.252 		"/>
		<polygon fill="#FFFFFF" points="41.458,39.252 41.458,49.419 39.669,49.419 39.669,39.252 36.947,39.252 36.947,37.572 
			44.175,37.572 44.175,39.252 		"/>
		<polygon fill="#FFFFFF" points="47.558,37.572 47.558,47.737 51.041,47.737 51.041,49.419 45.769,49.419 45.769,37.572 		"/>
		<polygon fill="#FFFFFF" points="59.274,39.252 54.526,39.252 54.526,42.099 59.135,42.099 59.135,43.779 54.526,43.779 
			54.526,47.737 59.274,47.737 59.274,49.419 52.737,49.419 52.737,37.572 59.274,37.572 		"/>
		<path fill="#FFFFFF" d="M75.225,38.203v2.114c-1.034-0.862-2.102-1.295-3.208-1.295c-1.217,0-2.243,0.438-3.077,1.312
			c-0.838,0.87-1.257,1.932-1.257,3.192c0,1.242,0.419,2.29,1.257,3.145c0.839,0.854,1.867,1.282,3.085,1.282
			c0.629,0,1.163-0.103,1.604-0.307c0.244-0.102,0.5-0.242,0.763-0.416c0.263-0.174,0.541-0.382,0.833-0.627v2.157
			c-1.024,0.581-2.098,0.871-3.222,0.871c-1.693,0-3.139-0.591-4.335-1.773c-1.193-1.191-1.789-2.627-1.789-4.311
			c0-1.508,0.5-2.853,1.497-4.034c1.228-1.449,2.814-2.172,4.764-2.172C73.203,37.342,74.231,37.63,75.225,38.203"/>
		<polygon fill="#FFFFFF" points="84.017,39.252 79.268,39.252 79.268,42.099 83.877,42.099 83.877,43.779 79.268,43.779 
			79.268,47.737 84.017,47.737 84.017,49.419 77.479,49.419 77.479,37.572 84.017,37.572 		"/>
		<polygon fill="#FFFFFF" points="86.365,49.419 86.365,36.767 95.004,45.805 95.004,37.572 96.792,37.572 96.792,50.139 
			88.152,41.124 88.152,49.419 		"/>
		<polygon fill="#FFFFFF" points="102.899,39.252 102.899,49.419 101.11,49.419 101.11,39.252 98.387,39.252 98.387,37.572 
			105.614,37.572 105.614,39.252 		"/>
		<path fill="#FFFFFF" d="M108.999,43.012h0.569c1.693,0,2.539-0.648,2.539-1.942c0-1.214-0.823-1.818-2.472-1.818h-0.635V43.012z
			 M111.224,44.37l3.668,5.049h-2.19l-3.381-4.851h-0.322v4.851h-1.789V37.572h2.096c1.564,0,2.695,0.294,3.389,0.881
			c0.768,0.656,1.152,1.52,1.152,2.595c0,0.839-0.24,1.56-0.72,2.163C112.645,43.814,112.011,44.201,111.224,44.37"/>
		<path fill="#FFFFFF" d="M122.9,44.861l-1.755-4.028l-1.843,4.028H122.9z M123.63,46.539h-5.071l-1.32,2.88h-1.924l5.86-12.59
			l5.656,12.59h-1.954L123.63,46.539z"/>
		<polygon fill="#FFFFFF" points="130.098,37.572 130.098,47.737 133.581,47.737 133.581,49.419 128.311,49.419 128.311,37.572 		
			"/>
	</g>
</g>
</svg>
